<?xml version="1.0" encoding="UTF-8" standalone="no"?>
<!-- Created with Inkscape (http://www.inkscape.org/) -->

<svg
   width="192.82385mm"
   height="187.40022mm"
   viewBox="0 0 192.82385 187.40022"
   version="1.1"
   id="svg1"
   xml:space="preserve"
   xmlns:inkscape="http://www.inkscape.org/namespaces/inkscape"
   xmlns:sodipodi="http://sodipodi.sourceforge.net/DTD/sodipodi-0.dtd"
   xmlns="http://www.w3.org/2000/svg"
   xmlns:svg="http://www.w3.org/2000/svg"><sodipodi:namedview
     id="namedview1"
     pagecolor="#505050"
     bordercolor="#eeeeee"
     borderopacity="1"
     inkscape:showpageshadow="0"
     inkscape:pageopacity="0"
     inkscape:pagecheckerboard="0"
     inkscape:deskcolor="#505050"
     inkscape:document-units="mm"><inkscape:page
       x="0"
       y="0"
       width="192.82385"
       height="187.40022"
       id="page2"
       margin="0"
       bleed="0" /></sodipodi:namedview><defs
     id="defs1" /><g
     inkscape:label="Layer 1"
     inkscape:groupmode="layer"
     id="layer1"
     transform="translate(-13.328354,-30.143269)"><path
       style="fill:#000000"
       d="m 95.968522,217.15872 c -9.12264,-1.17339 -18.67293,-3.51242 -25.86224,-6.33412 -7.93026,-3.1125 -16.61477,-8.13406 -23.28334,-13.46289 -6.69264,-5.34807 -14.86335,-14.64069 -19.64902,-22.34704 -5.38667,-8.67411 -9.88153,-20.16125 -12.07436,-30.85741 -1.6707,-8.14932 -1.96937,-11.51952 -1.93838,-21.87222 0.0239,-7.97537 0.15615,-10.35721 0.81306,-14.64028 2.62159,-17.092683 9.03634,-32.044528 19.04426,-44.389426 3.52393,-4.346799 10.58493,-11.173339 14.8815,-14.387344 13.53927,-10.127905 29.64687,-16.270311 48.48822,-18.490295 1.74625,-0.205753 6.270628,-0.466416 10.054168,-0.579252 12.86081,-0.383546 25.09976,1.179745 36.40126,4.649562 5.87617,1.804115 8.43019,2.826741 14.57513,5.83585 26.19598,12.827892 43.47496,36.894867 47.96548,66.808585 1.36189,9.07228 1.4952,20.45412 0.34323,29.30371 -5.35428,41.13228 -33.65146,71.51665 -73.91577,79.36778 -4.99843,0.97465 -13.04879,2.03841 -13.32628,1.76092 -0.10034,-0.10033 0.20487,-0.45114 0.67823,-0.77958 1.76417,-1.22403 29.56249,-23.60032 32.78705,-26.39197 8.64821,-7.48715 14.66807,-14.94233 18.86458,-23.36246 7.81158,-15.67365 10.95645,-33.92353 9.35155,-54.26776 -2.27406,-28.826808 -15.64208,-50.66056 -37.54755,-61.325743 -2.14376,-1.043739 -5.644,-2.480701 -7.7783,-3.193249 -4.07754,-1.361304 -10.80352,-3.000995 -12.31004,-3.000995 -0.6405,0 -2.56729,-1.4777 -6.93828,-5.321151 l -6.05152,-5.321151 -0.93203,0.841291 c -0.51261,0.46271 -3.0921,2.769253 -5.73221,5.125652 l -4.800178,4.284362 -4.49105,0.909334 c -13.86213,2.806765 -25.28835,8.922616 -34.42267,18.424631 -10.568,10.993403 -16.96167,25.036876 -19.40244,42.616759 -0.71694,5.16385 -0.8393,21.92329 -0.20346,27.86944 2.19984,20.57234 9.20579,36.83869 21.17499,49.16388 5.06577,5.21644 9.18373,8.7424 24.54361,21.01525 7.47007,5.96872 14.13757,11.30463 14.816668,11.85757 1.19343,0.97172 1.20523,1.00444 0.35278,0.97873 -0.485068,-0.0146 -2.499568,-0.23467 -4.476648,-0.48897 z m 2.85556,-11.91631 c -5.8393,-4.88072 -15.20555,-12.67804 -20.81388,-17.32738 -14.2597,-11.82136 -17.7768,-15.50714 -19.96312,-20.92051 -0.81389,-2.0152 -0.81761,-2.09938 -0.92,-20.84305 -0.0625,-11.43631 0.0253,-18.77164 0.22371,-18.69722 0.88379,0.33147 9.8909,8.32954 10.07002,8.9419 0.11351,0.38806 0.20856,7.41907 0.2112,15.62447 0.005,17.10535 -0.14656,16.2142 3.30579,19.36945 2.64139,2.41409 4.81293,4.10746 4.81286,3.75309 -3e-5,-0.16183 -0.23816,-1.53851 -0.52917,-3.05929 -0.67248,-3.51435 -0.67301,-10.59845 -0.001,-13.8155 0.6278,-3.00552 2.24747,-7.58472 2.68272,-7.58472 0.17435,0 0.31739,0.35719 0.31788,0.79375 0.002,1.61302 1.83488,7.58411 3.1877,10.38365 1.41245,2.92297 4.67965,7.56117 6.63123,9.41388 l 1.06612,1.01211 3.39992,-1.45835 c 4.77692,-2.04898 7.790398,-2.81525 12.937288,-3.28971 8.14807,-0.75112 16.18846,0.54657 22.23481,3.58862 l 2.71491,1.36593 1.53139,-1.64452 c 4.53757,-4.87279 8.02987,-11.83702 8.92025,-17.78845 0.13824,-0.92401 0.38501,-1.76264 0.54839,-1.86361 0.43383,-0.26812 1.25888,1.50591 2.16598,4.65731 0.68967,2.39601 0.79714,3.59443 0.80169,8.9405 0.003,3.99792 -0.16779,6.95373 -0.48577,8.38721 -0.27007,1.21748 -0.42523,2.27941 -0.3448,2.35984 0.32552,0.32552 6.49252,-5.48883 7.33666,-6.91712 0.90582,-1.53266 0.90771,-1.55311 1.01732,-11.05678 0.11881,-10.30092 -0.14024,-12.98956 -1.50929,-15.66442 -1.53633,-3.00169 -1.87553,-3.24738 -18.70886,-13.55151 l -7.76111,-4.75078 -0.10423,-1.73542 c -0.0845,-1.40739 0.0386,-1.86466 0.65132,-2.41918 0.71083,-0.6433 1.24944,-0.67693 9.10006,-0.56828 l 8.34451,0.11548 3.78406,-2.85374 c 2.08122,-1.56956 4.01837,-3.30688 4.30476,-3.8607 0.2864,-0.55383 0.99641,-2.71466 1.57781,-4.80185 0.5814,-2.08719 1.10488,-3.84122 1.16329,-3.89785 0.0584,-0.0566 1.6937,-1.01059 3.63397,-2.11992 1.94028,-1.10933 4.04372,-2.327592 4.67431,-2.707242 l 1.14653,-0.69028 v 10.231532 10.23152 l -4.8507,4.30974 c -2.66788,2.37036 -5.05592,4.49877 -5.30676,4.7298 -0.3629,0.33425 0.0895,0.75674 2.21436,2.06806 1.46874,0.9064 2.78522,1.64729 2.92552,1.64642 0.14029,-8.7e-4 1.23303,-0.874 2.4283,-1.94028 1.19528,-1.06628 2.26684,-1.93869 2.38125,-1.93869 0.11442,0 0.20803,8.26001 0.20803,18.35557 0,17.63735 -0.0286,18.44141 -0.73209,20.54931 -2.09908,6.29004 -5.3861,9.71837 -23.81011,24.83373 -3.50578,2.87619 -9.91963,8.16632 -14.253,11.75583 -9.84866,8.15806 -13.71078,11.29836 -13.84239,11.25529 -0.0565,-0.0185 -4.8803,-4.02692 -10.719598,-8.90764 z m -10.25884,-43.52402 c -3.30542,-4.96774 -5.37892,-10.72824 -7.17513,-19.93358 -0.38446,-1.97029 -0.49097,-2.1083 -4.35631,-5.64444 -2.17922,-1.99363 -7.56628,-6.77274 -11.97126,-10.62025 l -8.00904,-6.99547 V 108.4986 c 0,-5.58443 0.13838,-10.026062 0.31238,-10.026062 0.32737,0 8.48427,4.474052 8.9548,4.911702 0.14924,0.13881 0.72755,1.84845 1.28513,3.7992 1.53815,5.38137 1.72768,5.66263 5.98217,8.87729 l 3.8022,2.87292 h 8.274 c 6.91765,0 8.40252,0.09 9.05805,0.54917 0.77696,0.54421 0.78405,0.63441 0.78405,9.9786 v 9.42943 l 7.043368,5.72436 7.04338,5.72436 7.06773,-5.66079 7.06774,-5.66079 v -3.33939 c 0,-1.94699 0.14424,-3.33939 0.34593,-3.33939 0.19026,0 1.18244,0.53056 2.20486,1.17902 1.02241,0.64847 4.11542,2.48274 6.87335,4.07616 5.77719,3.33782 5.3024,2.18636 3.72434,9.03232 -1.00144,4.34444 -2.55744,9.00734 -3.87384,11.6088 -1.14562,2.26397 -4.04207,6.61154 -4.30593,6.46319 -8.80971,-4.95328 -24.48526,-5.48245 -35.181618,-1.18764 l -2.96532,1.19064 z m 19.995428,-20.7344 c -0.4548,-0.48412 -1.9906,-1.79173 -3.41288,-2.9058 l -2.58596,-2.02558 -0.018,-5.29628 c -0.01,-2.91296 -0.002,-7.37765 0.0164,-9.92153 l 0.0344,-4.62523 -3.279588,-1.87403 c -6.11108,-3.49198 -38.21533,-21.232542 -40.76224,-22.524892 l -1.4993,-0.760781 v -5.460888 c 0,-3.003487 0.0766,-5.460886 0.17015,-5.460886 0.0936,0 5.68953,3.07324 12.43542,6.829422 26.24555,14.613795 32.282108,17.897745 32.500198,17.680435 0.1244,-0.12394 0.22617,-1.58977 0.22617,-3.2574 v -3.032052 l -1.5875,-0.95738 C 97.487522,95.394688 72.141642,80.907673 66.402112,77.731391 c -3.29847,-1.825389 -6.05872,-3.37761 -6.13389,-3.44938 -0.27624,-0.263757 4.04653,-5.219996 6.7151,-7.699149 7.34921,-6.827555 14.62959,-10.628804 27.22361,-14.214054 l 5.70907,-1.625249 8.643048,-0.163441 c 5.82477,-0.110148 9.44829,-0.02566 11.1125,0.259116 3.13732,0.53684 8.90235,2.062378 10.05417,2.660524 0.48507,0.251899 2.3107,0.971588 4.05695,1.599309 6.02769,2.166764 11.36016,5.219786 16.40416,9.39195 2.47965,2.05105 9.20632,9.299277 8.976,9.671953 -0.0775,0.125374 -9.66941,5.526284 -21.31539,12.002022 l -21.1745,11.774066 v 3.633002 3.633 l 1.49931,-0.85806 c 0.82462,-0.47193 4.0393,-2.2479 7.14375,-3.94659 3.10444,-1.698692 6.27944,-3.436732 7.05555,-3.862322 0.77612,-0.42558 4.10987,-2.25156 7.40834,-4.05773 3.29847,-1.806171 8.45784,-4.662402 11.46528,-6.347189 3.00743,-1.684787 6.69836,-3.736279 8.20208,-4.558873 l 2.73403,-1.495624 v 5.464134 5.464131 l -7.27528,3.997391 c -4.00139,2.19856 -14.20108,7.829972 -22.66597,12.514252 l -15.3907,8.51687 -0.17639,10.02062 -0.17639,10.02062 -3.44222,2.89376 c -1.89323,1.59157 -3.49274,2.89376 -3.55448,2.89376 -0.0617,0 -0.48437,-0.3961 -0.93918,-0.88022 z"
       id="path1" /><path
       style="fill:#ffffff;stroke-width:1.39791"
       d="M 356.4664,819.11139 C 294.25354,809.81806 247.80546,792.84935 201.99763,762.6799 180.86755,748.76342 168.14444,738.22764 150.95267,720.41049 111.3086,679.32425 87.563412,640.67508 70.001756,588.64967 60.844091,561.52061 54.311198,532.0108 51.758726,506.24387 c -1.855261,-18.72868 -1.842516,-65.74183 0.02285,-84.27719 6.257407,-62.17727 30.70681,-125.40307 67.444914,-174.41157 11.66272,-15.55803 41.43241,-45.71336 58.08516,-58.8376 47.29124,-37.27083 108.43864,-61.99744 178.4558,-72.16346 21.359,-3.10119 88.87651,-3.57614 111.13364,-0.78178 69.97971,8.78588 129.169,31.55958 179.95253,69.2386 17.29358,12.83104 44.0725,38.42543 57.26321,54.73026 34.03317,42.06788 58.31151,95.15117 68.73024,150.27505 5.18926,27.4555 6.3798,41.96673 6.30791,76.88491 -0.0781,37.92565 -2.39001,58.35261 -10.20481,90.16503 -31.56816,128.50734 -125.15137,222.24552 -253.2591,253.67849 -14.08726,3.45649 -37.12318,7.47388 -60.5586,10.5612 l -6.87594,0.90582 46.7163,-37.40345 c 85.27433,-68.27498 100.84879,-82.02631 120.98552,-106.82307 33.82553,-41.65339 57.13219,-101.10269 64.06729,-163.41918 5.64545,-50.72816 3.1574,-100.83828 -7.19054,-144.81941 -12.87799,-54.73444 -39.11454,-102.18805 -75.12781,-135.88235 -33.50533,-31.34786 -73.57428,-51.33134 -124.15285,-61.91842 -13.90912,-2.91145 -14.96364,-3.56272 -37.23241,-22.99439 -7.97671,-6.96046 -16.31548,-14.11928 -18.53059,-15.9085 l -4.02745,-3.25311 -21.71956,19.40649 -21.71955,19.4065 -17.76303,3.85439 c -36.45072,7.90943 -70.37905,22.31338 -96.73318,41.06715 -32.32097,22.9998 -61.36943,58.39299 -79.53829,96.91097 -23.21487,49.21551 -32.33318,107.25908 -28.28481,180.05008 4.252,76.45248 26.23686,138.54073 66.90379,188.94549 17.86587,22.14391 41.72199,43.19629 117.09366,103.33197 25.37202,20.24321 46.72855,37.34605 47.45896,38.00631 1.87305,1.69318 -2.83622,1.35369 -22.99558,-1.65771 z"
       id="path2"
       transform="scale(0.26458333)"
       inkscape:export-filename="logo.svg"
       inkscape:export-xdpi="96"
       inkscape:export-ydpi="96" /><path
       style="fill:#ffffff;stroke-width:1.39791"
       d="m 400.84996,523.87699 -12.23169,-10.01474 v -37.28849 c 0,-28.15646 -0.42794,-37.62938 -1.74738,-38.68045 -1.85849,-1.48048 -96.39749,-54.04614 -142.58656,-79.28111 l -27.60867,-15.08374 v -19.54188 c 0,-16.74932 0.29803,-19.42751 2.08559,-18.74156 1.14708,0.44018 31.18462,16.94708 66.75008,36.68201 71.369,39.60195 97.61641,53.68078 100.07801,53.68078 1.1208,0 1.63102,-3.89874 1.63102,-12.46292 v -12.46292 l -38.79193,-22.2964 c -21.33556,-12.26303 -56.87736,-32.53234 -78.98177,-45.04292 -22.10441,-12.51058 -40.18984,-23.14286 -40.18984,-23.62729 0,-1.93931 20.87281,-24.45497 30.05501,-32.42057 21.11401,-18.3165 46.92058,-32.49424 76.88491,-42.2394 41.96377,-13.64769 36.2125,-12.7088 78.28282,-12.7796 36.50087,-0.0614 38.23164,0.0606 52.57025,3.70538 8.15471,2.0729 23.88117,7.32005 34.94769,11.66035 39.16691,15.3613 60.50477,29.54253 84.97514,56.47485 7.00131,7.70571 12.72966,14.54806 12.72966,15.20522 0,1.4129 -13.5476,9.18013 -96.80509,55.50119 l -62.55636,34.80379 v 14.43771 14.43771 l 3.14529,-1.65028 c 6.22491,-3.26613 75.37583,-41.27302 120.86709,-66.43129 25.53569,-14.12213 46.76641,-25.6766 47.17938,-25.6766 0.41297,0 0.75085,8.70456 0.75085,19.34347 v 19.34347 l -85.96064,47.40661 -85.96065,47.40662 -0.0107,37.35076 -0.0107,37.35077 -12.23169,10.49445 c -6.72743,5.77195 -12.86075,10.48485 -13.6296,10.47311 -0.76885,-0.0117 -6.90217,-4.52797 -13.6296,-10.03609 z"
       id="path3"
       transform="scale(0.26458333)" /><path
       style="fill:#ffffff;stroke-width:1.39791"
       d="m 336.41558,612.30715 c -12.33487,-19.14541 -19.47214,-37.49784 -26.10429,-67.12324 l -3.91182,-17.47385 -10.96265,-10.1999 c -6.02946,-5.60995 -26.20505,-23.53811 -44.83464,-39.84036 l -33.87199,-29.64046 -0.0273,-37.34898 c -0.0258,-35.27029 0.11133,-37.29313 2.46288,-36.34559 5.64459,2.27443 29.298,15.65954 30.6606,17.35036 0.80926,1.0042 3.17638,7.48734 5.26025,14.40699 5.52168,18.33514 7.98047,21.89413 23.16932,33.53667 l 13.44272,10.30409 32.31666,0.44614 c 24.14191,0.33328 32.77567,0.90527 34.13124,2.26121 1.35428,1.35465 1.99188,10.91424 2.51353,37.68572 l 0.69896,35.87066 26.32984,21.47009 26.32983,21.4701 5.92224,-4.63743 c 3.25723,-2.5506 15.43923,-12.18614 27.07111,-21.41232 l 21.14887,-16.77489 0.069,-12.23169 c 0.0393,-6.96148 0.65594,-12.23169 1.43121,-12.23169 1.33654,0 45.18456,25.51283 48.613,28.28533 2.69226,2.17715 2.09616,8.70714 -2.40619,26.35871 -7.05071,27.64249 -15.49073,47.21865 -26.39174,61.21412 l -2.59108,3.3266 -11.06244,-4.26612 c -19.34347,-7.45964 -31.74182,-9.37663 -60.64423,-9.37663 -28.1582,0 -37.50985,1.4509 -59.64865,9.25447 -6.28147,2.2141 -11.943,4.02014 -12.58117,4.01342 -0.63817,-0.007 -3.57807,-3.76492 -6.53311,-8.35153 z"
       id="path4"
       transform="scale(0.26458333)" /><path
       style="fill:#ffffff;stroke-width:1.39791"
       d="M 338.2936,745.51193 C 251.97307,673.53261 231.58429,654.31474 222.90171,636.74685 l -5.5271,-11.18326 -0.44132,-70.94381 c -0.25245,-40.58247 0.0884,-70.9438 0.79657,-70.9438 1.36616,0 26.82519,22.43232 32.71144,28.8225 l 3.71063,4.02832 0.67132,56.61526 c 0.4331,36.52568 1.23608,58.43261 2.26289,61.73685 1.01304,3.25987 4.63451,7.93881 9.96272,12.87179 10.81757,10.01517 17.99031,15.45736 19.01804,14.42963 0.44972,-0.44973 0.0958,-4.96321 -0.78658,-10.02998 -0.88234,-5.06678 -1.6002,-17.99277 -1.59526,-28.72443 0.009,-20.14845 1.42821,-28.88224 7.33311,-45.13705 l 2.95459,-8.13332 3.14167,12.32704 c 1.72792,6.77987 4.8,16.69997 6.82685,22.04467 4.2748,11.27245 18.99853,33.96324 27.16338,41.86157 l 5.6321,5.44824 13.97025,-5.79779 c 20.09089,-8.33792 33.89574,-11.33332 56.84674,-12.33469 29.07679,-1.26864 50.97846,2.85046 75.70669,14.23835 l 10.06877,4.63688 5.34966,-5.81962 c 16.98365,-18.47567 29.32738,-42.55049 33.9692,-66.25247 0.93821,-4.79064 2.23597,-8.38261 2.88393,-7.98215 0.64794,0.40044 2.86755,5.89271 4.93245,12.20502 3.42523,10.47076 3.76603,13.49904 3.88744,34.5424 0.0732,12.68601 -0.3924,27.94068 -1.03464,33.89926 -0.76837,7.12882 -0.68517,10.83378 0.24329,10.83378 0.77605,0 7.37999,-5.81879 14.67541,-12.93064 10.74902,-10.47856 13.57379,-14.09801 14.89592,-19.08653 1.12784,-4.25544 1.45975,-18.28115 1.07511,-45.43199 -0.48084,-33.94061 -0.90928,-40.22401 -3.15397,-46.25378 -4.96788,-13.34494 -10.95687,-17.81358 -83.5216,-62.31904 l -19.21005,-11.78192 -0.0112,-5.72445 c -0.0199,-10.18357 0.58304,-10.35149 37.16768,-10.35149 h 32.06605 l 14.11178,-11.11319 c 15.5779,-12.26779 16.49125,-13.65136 22.20784,-33.64119 l 3.80387,-13.30147 17.30804,-10.04081 17.30802,-10.04081 -0.11243,38.0203 -0.11243,38.02031 -19.53973,17.27375 c -18.9204,16.72624 -19.46256,17.35905 -17.10466,19.96449 2.8428,3.14126 16.15735,10.98957 18.64366,10.98957 0.93706,0 5.01719,-2.83077 9.06695,-6.29059 4.04977,-3.45982 7.7994,-6.29058 8.33251,-6.29058 0.53312,0 0.77984,31.61018 0.54824,70.24485 l -0.42106,70.24485 -3.87345,9.13749 c -9.64485,22.75227 -19.39905,32.01031 -128.2288,121.70614 -58.72137,48.39726 -64.39683,52.98682 -65.44511,52.92331 -0.52553,-0.0318 -34.61012,-28.12114 -75.74355,-62.42069 z"
       id="path5"
       transform="scale(0.26458333)" /></g></svg>
