<?xml version="1.0" encoding="UTF-8" standalone="no"?>
<!-- Created with Inkscape (http://www.inkscape.org/) -->

<svg
   width="229.30556mm"
   height="229.30556mm"
   viewBox="0 0 229.30556 229.30556"
   version="1.1"
   id="svg1"
   xml:space="preserve"
   xmlns="http://www.w3.org/2000/svg"
   xmlns:svg="http://www.w3.org/2000/svg"><defs
     id="defs1" /><g
     id="layer1"
     transform="translate(-1.219616,-40.188621)"><path
       style="fill:#000000"
       d="M 1.2196159,154.8414 V 40.18862 H 115.87239 230.52517 V 154.8414 269.49418 H 115.87239 1.2196159 Z M 105.64183,243.05171 c -0.67909,-0.55294 -7.346591,-5.88885 -14.816661,-11.85757 -15.359883,-12.27285 -19.477843,-15.79881 -24.543613,-21.01525 -11.9692,-12.32519 -18.97515,-28.59154 -21.17499,-49.16388 -0.63584,-5.94615 -0.51348,-22.70559 0.20346,-27.86944 2.44077,-17.57988 8.83444,-31.62336 19.40244,-42.616759 9.13432,-9.502015 20.56054,-15.617866 34.422673,-18.424631 l 4.491051,-0.909334 4.80018,-4.284362 c 2.6401,-2.356399 5.2196,-4.662943 5.73221,-5.125652 l 0.93202,-0.841291 6.05153,5.321151 c 4.37099,3.84345 6.29777,5.321151 6.93828,5.321151 1.50651,0 8.2325,1.63969 12.31004,3.000995 13.91435,4.645372 25.86194,14.086821 33.70163,26.632332 7.95924,12.73683 11.98309,28.79901 11.98309,47.83341 0,16.97377 -3.07437,31.00602 -9.71043,44.32101 -4.1965,8.42013 -10.21636,15.87531 -18.86457,23.36246 -3.22456,2.79165 -31.02288,25.16794 -32.78705,26.39197 -0.47336,0.32844 -0.77857,0.67925 -0.67824,0.77958 0.27749,0.27749 8.32786,-0.78627 13.32629,-1.76092 24.79886,-4.83552 45.11519,-18.03359 58.68253,-38.12184 14.66493,-21.71336 19.62134,-50.44358 13.46399,-78.04498 -1.69895,-7.61582 -5.24765,-17.05352 -8.84106,-23.51263 -8.79321,-15.805635 -21.49062,-27.863845 -37.69841,-35.800625 -12.4641,-6.103537 -23.71834,-9.072703 -38.98194,-10.28447 -5.52016,-0.438242 -16.75437,-0.245485 -22.04861,0.378309 -18.841344,2.219984 -34.948954,8.362391 -48.488214,18.490296 -4.29658,3.214005 -11.35758,10.040545 -14.8815,14.387344 -10.00793,12.344896 -16.42267,27.296746 -19.04427,44.389426 -0.65691,4.28307 -0.78919,6.66491 -0.81306,14.64028 -0.031,10.3527 0.26769,13.7229 1.93838,21.87222 2.19283,10.69616 6.68769,22.1833 12.07436,30.85741 4.78568,7.70635 12.95638,16.99897 19.64902,22.34704 13.53993,10.81972 29.57769,17.28011 49.145574,19.79701 1.97709,0.2543 3.99158,0.47434 4.47665,0.48897 0.85245,0.0257 0.84066,-0.007 -0.35278,-0.97873 z m 12.48441,-4.86656 c 1.61173,-1.30968 6.47591,-5.31812 10.80928,-8.90764 4.33338,-3.58951 10.74723,-8.87964 14.25301,-11.75583 18.42401,-15.11536 21.71102,-18.54369 23.81011,-24.83373 0.70344,-2.1079 0.73208,-2.91196 0.73208,-20.54931 0,-10.09556 -0.0936,-18.35557 -0.20802,-18.35557 -0.11441,0 -1.18598,0.87241 -2.38125,1.93869 -1.19527,1.06628 -2.28801,1.93941 -2.42831,1.94028 -0.14029,8.7e-4 -1.45677,-0.74002 -2.92551,-1.64642 -2.12487,-1.31132 -2.57726,-1.73381 -2.21436,-2.06806 0.25083,-0.23103 2.63888,-2.35944 5.30676,-4.7298 l 4.85069,-4.30974 V 134.6765 124.44497 l -1.14652,0.69028 c -0.63059,0.37965 -2.73403,1.59791 -4.67431,2.70724 -1.94028,1.10933 -3.57557,2.06329 -3.63397,2.11992 -0.0584,0.0566 -0.58189,1.81066 -1.16329,3.89785 -0.5814,2.08719 -1.29142,4.24802 -1.57781,4.80185 -0.28639,0.55382 -2.22354,2.29114 -4.30477,3.8607 l -3.78405,2.85374 -8.34451,-0.11548 c -7.85062,-0.10865 -8.38923,-0.075 -9.10007,0.56828 -0.61273,0.55452 -0.73585,1.01179 -0.65132,2.41918 l 0.10423,1.73541 7.76112,4.75079 c 16.83333,10.30413 17.17252,10.54982 18.70885,13.55151 1.36905,2.67486 1.62811,5.3635 1.5093,15.66442 -0.10962,9.50367 -0.1115,9.52412 -1.01732,11.05678 -0.84414,1.42829 -7.01114,7.24264 -7.33666,6.91712 -0.0804,-0.0804 0.0747,-1.14236 0.34479,-2.35984 0.31799,-1.43348 0.48918,-4.38929 0.48578,-8.38721 -0.005,-5.34607 -0.11202,-6.54449 -0.80169,-8.9405 -0.90711,-3.1514 -1.73216,-4.92543 -2.16598,-4.65731 -0.16338,0.10097 -0.41016,0.9396 -0.5484,1.86361 -0.89037,5.95143 -4.38267,12.91566 -8.92024,17.78845 l -1.53139,1.64452 -2.71491,-1.36593 c -6.04636,-3.04205 -14.08674,-4.33974 -22.23482,-3.58862 -5.14689,0.47446 -8.16036,1.24073 -12.937281,3.28971 l -3.39993,1.45834 -1.06612,-1.0121 c -1.95157,-1.85271 -5.218773,-6.49091 -6.631233,-9.41388 -1.35281,-2.79954 -3.18589,-8.77063 -3.18769,-10.38365 -4.9e-4,-0.43656 -0.14354,-0.79375 -0.31788,-0.79375 -0.43526,0 -2.05492,4.5792 -2.68272,7.58472 -0.67198,3.21705 -0.67145,10.30115 10e-4,13.8155 0.29101,1.52078 0.52913,2.89746 0.52917,3.05929 7e-5,0.35437 -2.17147,-1.339 -4.81287,-3.75309 -3.45235,-3.15525 -3.30026,-2.2641 -3.30578,-19.36945 -0.003,-8.2054 -0.0977,-15.23641 -0.2112,-15.62447 -0.17913,-0.61236 -9.18623,-8.61043 -10.07002,-8.9419 -0.19841,-0.0744 -0.28618,7.26091 -0.22371,18.69722 0.10239,18.74367 0.1061,18.82785 0.91999,20.84305 2.18632,5.41337 5.70343,9.09915 19.96312,20.92051 5.608343,4.64934 14.974593,12.44666 20.813894,17.32738 5.8393,4.88072 10.66312,8.88915 10.7196,8.90764 0.0565,0.0185 1.42138,-1.03796 3.03311,-2.34765 z m -12.79083,-50.18112 c 6.72798,-1.42322 16.24425,-1.26953 22.11437,0.35716 1.97907,0.54843 5.29322,1.87482 6.79688,2.72026 0.26385,0.14835 3.16031,-4.19922 4.30593,-6.46319 1.3164,-2.60146 2.8724,-7.26436 3.87384,-11.6088 1.57806,-6.84596 2.05285,-5.6945 -3.72434,-9.03232 -2.75793,-1.59342 -5.85094,-3.42769 -6.87336,-4.07616 -1.02241,-0.64846 -2.0146,-1.17902 -2.20486,-1.17902 -0.20169,0 -0.34592,1.3924 -0.34592,3.33939 v 3.33939 l -7.06774,5.66079 -7.06774,5.66079 -7.04337,-5.72436 -7.04338,-5.72436 v -9.42943 c 0,-9.34419 -0.007,-9.43439 -0.78405,-9.9786 -0.655521,-0.45914 -2.140391,-0.54917 -9.058051,-0.54917 h -8.273993 l -3.8022,-2.87292 c -4.25449,-3.21466 -4.44402,-3.49592 -5.98217,-8.87729 -0.55758,-1.95075 -1.13589,-3.66039 -1.28513,-3.7992 -0.47052,-0.43765 -8.62743,-4.9117 -8.9548,-4.9117 -0.17399,0 -0.31238,4.44163 -0.31238,10.02606 v 10.02605 l 8.00904,6.99547 c 4.40498,3.84751 9.79204,8.62662 11.97126,10.62025 3.86534,3.53614 3.97185,3.67415 4.35631,5.64444 1.79621,9.20534 3.869703,14.96584 7.175133,19.93358 l 1.98502,2.98331 2.96533,-1.19064 c 1.630931,-0.65485 4.452601,-1.50525 6.270371,-1.88978 z m 13.26836,-22.65083 3.44223,-2.89376 0.17639,-10.02062 0.17639,-10.02062 15.3907,-8.51687 c 8.46488,-4.68428 18.66457,-10.31569 22.66597,-12.51426 l 7.27527,-3.99738 v -5.46414 -5.46414 l -2.73402,1.49563 c -1.50372,0.82259 -5.19466,2.87409 -8.20209,4.55888 -3.00743,1.68479 -8.1668,4.54102 -11.46528,6.34719 -3.29847,1.80617 -6.63222,3.63215 -7.40833,4.05773 -0.77611,0.42559 -3.95111,2.16363 -7.05555,3.86232 -3.10445,1.69869 -6.31914,3.47466 -7.14375,3.94659 l -1.49931,0.85806 v -3.633 -3.633 l 21.1745,-11.77407 c 11.64598,-6.47574 21.2379,-11.87665 21.31538,-12.00202 0.23033,-0.37268 -6.49634,-7.620904 -8.97599,-9.671953 -5.044,-4.172165 -10.37647,-7.225187 -16.40417,-9.39195 -1.74625,-0.627721 -3.57187,-1.34741 -4.05694,-1.599309 -1.15182,-0.598146 -6.91686,-2.123684 -10.05417,-2.660524 -1.66422,-0.284772 -5.28774,-0.369264 -11.1125,-0.259117 l -8.64305,0.163442 -5.709071,1.625249 c -12.594023,3.58525 -19.874403,7.386498 -27.223613,14.214054 -2.66857,2.479153 -6.99134,7.435388 -6.7151,7.699148 0.0752,0.0718 2.83542,1.62399 6.13389,3.44938 5.73953,3.17628 31.085404,17.6633 34.395834,19.65973 l 1.5875,0.95738 v 3.03205 c 0,1.66763 -0.10178,3.13346 -0.22617,3.2574 -0.21809,0.21731 -6.25465,-3.06664 -32.500204,-17.68043 -6.74589,-3.75619 -12.34183,-6.82943 -12.43542,-6.82943 -0.0936,0 -0.17015,2.45739 -0.17015,5.46088 v 5.4609 l 1.49931,0.76078 c 2.5469,1.29235 34.651143,19.03291 40.762234,22.52489 l 3.27959,1.87403 -0.0344,4.62523 c -0.0189,2.54388 -0.0263,7.00857 -0.0164,9.92153 l 0.018,5.29628 2.58596,2.02558 c 1.42228,1.11407 2.95808,2.42168 3.41288,2.9058 0.45481,0.48412 0.87744,0.88022 0.93918,0.88022 0.0617,0 1.66125,-1.30219 3.55447,-2.89376 z"
       id="path7" /><path
       style="fill:#ffffff;stroke-width:0.98847"
       d="M 396.37641,921.54378 C 342.83875,915.6293 297.2386,902.8202 256.50792,882.25466 212.31946,859.94323 179.26646,832.71485 145.83736,791.08653 107.75594,743.66482 81.365818,678.75853 72.967128,611.86283 c -1.795372,-14.30017 -1.773826,-83.88269 0.03,-96.87004 10.806383,-77.80501 41.512722,-144.18137 89.561192,-193.59996 23.95422,-24.63727 39.95114,-37.89982 63.51985,-52.66233 46.29437,-28.99696 104.97849,-48.2882 165.35589,-54.35746 19.34944,-1.94505 73.31893,-1.68943 91.43346,0.43307 51.9662,6.08892 86.8912,15.80145 128.62447,35.77005 60.31377,28.85903 107.87142,72.01396 141.29444,128.21386 20.20653,33.97677 35.41534,76.19259 42.4019,117.69708 4.47175,26.56495 4.97801,33.4732 4.97801,67.92918 0,41.25783 -2.0017,59.26708 -10.38237,93.4104 -6.45193,26.28552 -13.56325,46.11757 -25.27717,70.49301 -28.73813,59.801 -73.10161,108.63856 -129.41493,142.46645 -32.16653,19.32271 -71.62032,34.60361 -109.89277,42.56272 -15.62928,3.25026 -46.21059,7.89477 -52.0233,7.901 -3.7324,0.004 -3.64997,-0.0833 10.87317,-11.52207 16.32492,-12.85786 59.85767,-47.86661 89.26354,-71.78516 35.13216,-28.57628 51.36678,-44.41063 68.69514,-67.00145 29.99602,-39.10553 50.81985,-92.97598 58.24452,-150.67636 7.14997,-55.56553 3.06816,-118.58717 -10.81963,-167.0514 -10.17214,-35.49768 -27.65653,-69.77947 -48.95441,-95.98532 -8.79278,-10.81904 -24.35993,-26.21767 -35.53459,-35.14994 -31.923,-25.5171 -65.59574,-40.83216 -110.47716,-50.24731 -15.32861,-3.2156 -13.84906,-2.27329 -41.28779,-26.29577 -9.56246,-8.37188 -17.74272,-15.22161 -18.17835,-15.22161 -0.43563,0 -10.40444,8.59377 -22.15292,19.09725 l -21.36087,19.09725 -13.09709,2.75578 c -28.76918,6.05336 -49.4307,12.96488 -70.50479,23.58468 -40.38033,20.34874 -73.6207,51.50032 -97.78813,91.64328 -19.28613,32.03492 -32.14601,69.2994 -38.54639,111.69709 -3.83827,25.42564 -3.8651,95.96628 -0.0466,122.57026 10.28672,71.66935 33.21916,124.07531 73.84333,168.74919 18.5192,20.36532 35.52696,34.99298 110.00816,94.61334 51.56026,41.27271 47.80977,38.17177 45.91442,37.96258 -0.7883,-0.087 -2.99012,-0.33018 -4.89292,-0.54039 z"
       id="path8"
       transform="scale(0.26458333)" /><path
       style="fill:#ffffff;stroke-width:0.98847"
       d="m 422.07662,624.16487 -12.35587,-10.26406 -0.49424,-37.77082 -0.49423,-37.77082 -4.94235,-2.91116 C 395.60508,530.62695 295.0934,474.87612 265.1595,458.55385 l -27.92181,-15.22513 -0.002,-20.04189 -0.002,-20.0419 3.21253,1.64836 c 1.76689,0.90659 29.4564,16.19901 61.53225,33.98316 96.77521,53.65608 102.66738,56.79932 104.88081,55.94995 1.07265,-0.41161 1.37969,-3.1227 1.37969,-12.18218 v -11.65273 l -4.69523,-2.87004 c -6.36106,-3.88827 -122.75359,-70.38446 -140.28552,-80.14648 l -14.0085,-7.80012 3.13533,-4.4249 c 5.19801,-7.33598 29.23263,-30.94688 38.55678,-37.87706 24.3437,-18.09345 48.11391,-28.78795 91.749,-41.27895 l 17.4503,-4.99534 h 34.58268 c 30.78421,0 35.6532,0.21876 44.32906,1.99168 15.19046,3.10416 25.70874,6.39357 46.17167,14.43939 31.16893,12.2553 51.36896,24.63085 70.72156,43.32756 9.58146,9.25673 25.80528,26.9754 25.80005,28.17725 -0.003,0.58442 -17.45019,10.4274 -102.72267,57.95035 l -56.9129,31.71796 -0.27426,13.99877 c -0.21773,11.11341 -0.004,13.99877 1.03789,13.99877 0.72168,0 1.73473,-0.39317 2.2512,-0.87372 0.51648,-0.48054 17.39707,-9.88467 37.51243,-20.89806 28.00914,-15.33532 125.8203,-69.27786 130.23091,-71.82191 0.40774,-0.23519 0.74091,8.60606 0.74037,19.64723 l -9.7e-4,20.07485 -7.65967,4.13638 c -42.2846,22.83455 -162.14013,89.67987 -163.09655,90.96152 -0.90697,1.21539 -1.23558,7.87343 -1.23558,25.03383 0,12.85793 -0.29348,29.4973 -0.65217,36.97638 l -0.65216,13.59833 -12.27197,10.28124 c -6.74958,5.65468 -12.57226,10.24328 -12.93929,10.19688 -0.36704,-0.0464 -6.22748,-4.70318 -13.02321,-10.34841 z"
       id="path9"
       transform="scale(0.26458333)" /><path
       style="fill:#ffffff;stroke-width:0.98847"
       d="M 363.76081,849.08517 C 258.6712,761.53872 253.107,756.25127 242.44761,733.80563 c -3.42817,-7.21877 -3.55119,-7.8854 -4.32137,-23.41793 -0.93841,-18.92543 -0.98261,-122.76166 -0.0536,-125.90777 0.58722,-1.9886 1.71169,-1.25173 12.9987,8.51807 6.79573,5.88224 15.09835,13.31162 18.45026,16.50973 l 6.09439,5.81475 0.44832,56.34278 c 0.51066,64.17714 0.47273,63.8278 7.75077,71.37374 5.46289,5.66397 21.38472,19.07125 22.64809,19.07125 1.29132,0 1.18058,-2.02852 -0.64749,-11.86164 -1.93031,-10.38307 -2.20411,-41.1049 -0.4486,-50.33532 1.56219,-8.21392 7.67557,-26.8801 9.35468,-28.56291 1.07544,-1.07782 1.41307,-0.34533 1.95118,4.23311 0.90178,7.67279 8.77734,31.13349 13.09013,38.9945 5.92229,10.7947 14.34258,22.74071 21.18575,30.0566 l 6.46709,6.91383 13.30231,-5.50798 c 24.97204,-10.33997 37.86698,-12.90837 65.19698,-12.98589 13.50949,-0.0383 20.99808,0.42223 28.66562,1.76292 12.91552,2.25832 30.62288,7.97737 41.26222,13.32674 l 8.09336,4.06925 4.72918,-5.03728 c 16.78762,-17.8813 29.93028,-42.78021 34.37934,-65.13199 0.91981,-4.6211 2.06435,-8.8135 2.54342,-9.31647 1.19878,-1.25857 5.24009,7.92377 8.01573,18.2127 2.09481,7.76516 2.25677,10.23758 2.13686,32.6195 -0.0887,16.54512 -0.58598,26.63851 -1.56982,31.85927 -0.79203,4.20296 -1.2223,7.85951 -0.95614,8.12566 0.86229,0.8623 6.42791,-3.64661 16.3777,-13.26819 10.21755,-9.8805 13.84562,-14.97262 14.87785,-20.88158 1.13726,-6.51013 0.85594,-72.16323 -0.34055,-79.47616 -1.32759,-8.11419 -5.39857,-17.4065 -9.84397,-22.46952 -4.35545,-4.96058 -17.42132,-13.63342 -59.1614,-39.27004 l -35.83203,-22.00791 v -5.86487 c 0,-4.90893 0.39546,-6.26032 2.42625,-8.29111 l 2.42624,-2.42624 h 32.06139 32.0614 l 10.78093,-8.29478 c 19.04856,-14.65581 18.90959,-14.46952 24.41259,-32.72672 2.62187,-8.69853 5.27712,-16.33988 5.90055,-16.98078 0.93313,-0.95927 25.0563,-15.23755 32.23284,-19.07832 2.01061,-1.07604 2.01441,-1.00663 2.01441,36.81153 v 37.8896 l -19.27516,17.15602 c -10.60134,9.43582 -19.27517,17.73276 -19.27517,18.43766 0,2.16355 16.69487,13.25059 19.93572,13.23928 0.72402,-0.003 4.92055,-3.09246 9.32564,-6.86652 l 8.00926,-6.86193 0.63474,9.58482 c 0.92951,14.03597 0.71718,112.76703 -0.26615,123.75915 -2.12084,23.70747 -14.28072,40.4559 -53.94896,74.30667 -17.15713,14.64098 -136.69437,113.4373 -141.04989,116.57632 l -2.66412,1.92002 z"
       id="path10"
       transform="scale(0.26458333)" /><path
       style="fill:#ffffff;stroke-width:0.98847"
       d="m 357.64001,712.84432 c -12.42899,-19.29611 -19.78506,-37.90361 -26.06327,-65.92809 -1.91264,-8.5376 -4.09543,-16.69237 -4.85066,-18.12174 -2.37153,-4.48843 -16.27029,-17.29035 -66.01716,-60.80731 l -23.47616,-20.53619 0.0985,-35.25714 c 0.0542,-19.39144 0.3878,-36.22798 0.74135,-37.41456 0.61604,-2.06752 1.1782,-1.86569 13.49293,4.84413 21.35,11.6328 19.7144,10.09959 23.21315,21.76003 5.72291,19.07302 7.4917,22.78305 13.65261,28.63638 3.10115,2.94631 9.86416,8.51971 15.02891,12.38532 l 9.39046,7.02838 31.85175,0.32497 c 31.61685,0.32257 31.86835,0.34156 34.10221,2.5751 2.23818,2.23784 2.25316,2.44376 2.7447,37.70469 l 0.49423,35.45456 26.19445,21.32219 c 14.40695,11.7272 26.72476,21.139 27.3729,20.9151 0.64815,-0.22391 12.99167,-9.85862 27.43004,-21.4105 l 26.25159,-21.00339 v -12.1633 c 0,-7.42537 0.38387,-12.16329 0.9855,-12.16329 1.2587,0 41.70253,23.56566 46.95529,27.35973 2.85701,2.06364 4.03522,3.67623 4.24708,5.81296 0.69185,6.97759 -10.19249,45.49739 -17.04959,60.33867 -3.22371,6.97732 -15.79784,27.08196 -16.93796,27.08196 -0.26047,0 -2.57165,-1.05687 -5.13595,-2.34861 -15.99237,-8.05595 -31.90174,-11.40991 -57.73839,-12.17219 -30.02269,-0.88576 -50.10322,2.16418 -72.45285,11.00459 -4.88919,1.93392 -8.8925,3.51409 -8.89623,3.5115 -0.004,-0.003 -2.537,-3.93288 -5.62946,-8.73395 z"
       id="path11"
       transform="scale(0.26458333)" /></g></svg>
