<?xml version="1.0" encoding="UTF-8" standalone="no"?>
<!-- Created with Inkscape (http://www.inkscape.org/) -->

<svg
   width="1023.9999"
   height="1023.9999"
   viewBox="0 0 270.93331 270.93331"
   version="1.1"
   id="svg1"
   xml:space="preserve"
   xmlns="http://www.w3.org/2000/svg"
   xmlns:svg="http://www.w3.org/2000/svg"><defs
     id="defs1" /><g
     id="layer1"
     transform="matrix(1.4553807,0,0,1.4553807,-14.917436,-84.055878)"><path
       style="fill:#000000"
       d="m 92.536411,223.73555 c -5.8393,-4.88072 -15.20555,-12.67804 -20.81388,-17.32738 -14.2597,-11.82136 -17.7768,-15.50714 -19.96312,-20.92051 -0.81389,-2.0152 -0.81761,-2.09938 -0.92,-20.84305 -0.0625,-11.43631 0.0253,-18.77164 0.22371,-18.69723 0.88379,0.33148 9.8909,8.32955 10.07002,8.94191 0.11351,0.38806 0.20856,7.41907 0.2112,15.62447 0.006,17.10535 -0.14656,16.2142 3.30579,19.36945 2.64139,2.41409 4.81293,4.10746 4.81286,3.75309 -3e-5,-0.16183 -0.23816,-1.53851 -0.52917,-3.05929 -0.67248,-3.51435 -0.67301,-10.59845 -10e-4,-13.8155 0.6278,-3.00552 2.24747,-7.58472 2.68272,-7.58472 0.17435,0 0.31739,0.35719 0.31788,0.79375 0.002,1.61302 1.83488,7.58411 3.1877,10.38365 1.41245,2.92297 4.67965,7.56117 6.63123,9.41388 l 1.06612,1.0121 3.39992,-1.45834 c 4.77692,-2.04898 7.7904,-2.81525 12.93729,-3.28971 8.148079,-0.75112 16.188459,0.54657 22.234819,3.58862 l 2.71491,1.36593 1.53139,-1.64452 c 4.53757,-4.87279 8.02987,-11.83702 8.92024,-17.78845 0.13824,-0.92401 0.38502,-1.76264 0.5484,-1.86361 0.43382,-0.26812 1.25887,1.5059 2.16598,4.65731 0.68967,2.39601 0.79713,3.59443 0.80169,8.9405 0.003,3.99792 -0.16779,6.95373 -0.48578,8.38721 -0.27006,1.21748 -0.42522,2.27941 -0.34479,2.35984 0.32552,0.32551 6.49252,-5.48883 7.33666,-6.91712 0.90582,-1.53266 0.9077,-1.55311 1.01732,-11.05678 0.11881,-10.30092 -0.14025,-12.98956 -1.5093,-15.66442 -1.53633,-3.00169 -1.87552,-3.24738 -18.70885,-13.55151 l -7.76112,-4.75079 -0.10423,-1.73541 c -0.0845,-1.40739 0.0386,-1.86466 0.65132,-2.41918 0.71084,-0.6433 1.24945,-0.67693 9.10007,-0.56828 l 8.34451,0.11548 3.78405,-2.85374 c 2.08123,-1.56957 4.01838,-3.30688 4.30477,-3.8607 0.28639,-0.55383 0.99641,-2.71466 1.57781,-4.80185 0.5814,-2.08718 1.10488,-3.84121 1.16329,-3.89784 0.0584,-0.0566 1.69369,-1.01059 3.63397,-2.11992 1.94028,-1.10933 4.04372,-2.32759 4.67431,-2.70724 l 1.14652,-0.69028 v 10.23152 10.23152 l -4.85069,4.30974 c -2.66788,2.37036 -5.05593,4.49877 -5.30676,4.7298 -0.3629,0.33425 0.0895,0.75674 2.21436,2.06806 1.46874,0.9064 2.78522,1.64729 2.92551,1.64642 0.1403,-8.7e-4 1.23303,-0.874 2.42831,-1.94028 1.19527,-1.06628 2.26684,-1.93869 2.38125,-1.93869 0.11441,0 0.20802,8.26001 0.20802,18.35557 0,17.63735 -0.0286,18.44141 -0.73208,20.54931 -2.09909,6.29004 -5.3861,9.71837 -23.81011,24.83372 -3.50578,2.8762 -9.91963,8.16633 -14.25301,11.75584 -9.84865,8.15805 -13.71077,11.29836 -13.84239,11.25529 -0.0565,-0.0185 -4.880299,-4.02692 -10.719599,-8.90764 z m -10.25884,-43.52402 c -3.30542,-4.96774 -5.37892,-10.72824 -7.17513,-19.93358 -0.38446,-1.9703 -0.49097,-2.1083 -4.35631,-5.64444 -2.17922,-1.99363 -7.56628,-6.77274 -11.97126,-10.62025 l -8.00904,-6.99547 v -10.02605 c 0,-5.58442 0.13838,-10.02605 0.31238,-10.02605 0.32737,0 8.48427,4.47405 8.9548,4.9117 0.14924,0.13881 0.72755,1.84845 1.28513,3.79919 1.53815,5.38137 1.72768,5.66263 5.98217,8.87729 l 3.8022,2.87292 h 8.274 c 6.91765,0 8.40252,0.09 9.05805,0.54917 0.77696,0.54421 0.78405,0.63441 0.78405,9.9786 v 9.42943 l 7.04337,5.72436 7.043369,5.72436 7.06774,-5.66079 7.06774,-5.66079 v -3.33939 c 0,-1.94699 0.14423,-3.33939 0.34592,-3.33939 0.19026,0 1.18245,0.53056 2.20486,1.17902 1.02242,0.64847 4.11543,2.48274 6.87336,4.07616 5.77719,3.33782 5.3024,2.18636 3.72434,9.03232 -1.00144,4.34444 -2.55744,9.00734 -3.87384,11.6088 -1.14562,2.26397 -4.04208,6.61154 -4.30593,6.46319 -8.80971,-4.95328 -24.485259,-5.48245 -35.181619,-1.18764 l -2.96532,1.19064 z M 102.273,159.47713 c -0.45481,-0.48412 -1.9906,-1.79173 -3.412879,-2.9058 l -2.58596,-2.02558 -0.018,-5.29628 c -0.01,-2.91296 -0.002,-7.37765 0.0164,-9.92153 l 0.0344,-4.62523 -3.2796,-1.87403 c -6.11108,-3.49198 -38.21532,-21.23253 -40.76223,-22.52488 l -1.4993,-0.76078 v -5.46089 c 0,-3.00349 0.0766,-5.460882 0.17015,-5.460882 0.0936,0 5.68953,3.073242 12.43542,6.829422 26.24555,14.61379 32.28211,17.89774 32.5002,17.68043 0.1244,-0.12394 0.22617,-1.58977 0.22617,-3.2574 v -3.03205 l -1.5875,-0.95738 c -3.31042,-1.99643 -28.6563,-16.483442 -34.39583,-19.659729 -3.29847,-1.825389 -6.05872,-3.37761 -6.13389,-3.44938 -0.27624,-0.263756 4.04653,-5.219995 6.7151,-7.699148 7.34921,-6.827556 14.62959,-10.628805 27.22361,-14.214055 l 5.70907,-1.625248 8.643049,-0.163442 c 5.82476,-0.110148 9.44828,-0.02566 11.1125,0.259116 3.13731,0.53684 8.90235,2.062379 10.05417,2.660524 0.48507,0.251899 2.31069,0.971589 4.05694,1.59931 6.0277,2.166763 11.36016,5.219785 16.40417,9.391949 2.47965,2.05105 9.20632,9.299278 8.97599,9.671953 -0.0775,0.125374 -9.6694,5.526284 -21.31538,12.00202 l -21.1745,11.77407 v 3.633 3.633 l 1.49931,-0.85806 c 0.82461,-0.47193 4.0393,-2.2479 7.14375,-3.94659 3.10444,-1.69869 6.27944,-3.43673 7.05555,-3.86232 0.77611,-0.42558 4.10986,-2.25156 7.40833,-4.05773 3.29848,-1.80617 8.45785,-4.6624 11.46528,-6.34719 3.00743,-1.68479 6.69837,-3.73628 8.20209,-4.55887 l 2.73402,-1.495632 v 5.464142 5.46413 l -7.27527,3.99738 c -4.0014,2.19856 -14.20109,7.82998 -22.66597,12.51425 l -15.3907,8.51687 -0.17639,10.02062 -0.17639,10.02062 -3.44223,2.89376 c -1.89322,1.59157 -3.49274,2.89376 -3.55447,2.89376 -0.0617,0 -0.48437,-0.3961 -0.93918,-0.88022 z"
       id="path1" /><path
       style="fill:#ffffff;stroke-width:1.39791"
       d="m 377.08554,593.77236 -12.23169,-10.01473 v -37.2885 c 0,-28.15646 -0.42795,-37.62938 -1.74739,-38.68045 -1.85849,-1.48048 -96.39749,-54.04614 -142.58656,-79.2811 l -27.60867,-15.08375 v -19.54187 c 0,-16.74606 0.29827,-19.42743 2.08481,-18.74186 1.14665,0.44001 31.81325,17.28535 68.14799,37.4341 72.48047,40.19268 96.22858,52.92898 98.69137,52.92898 1.1076,0 1.62054,-3.94482 1.62054,-12.46292 v -12.46291 l -38.79193,-22.2964 C 303.32844,406.01791 267.78665,385.7486 245.68223,373.23802 223.57782,360.72744 205.4924,350.09516 205.4924,349.61073 c 0,-1.93931 20.87281,-24.45497 30.05501,-32.42056 25.58948,-22.199 49.63827,-34.22398 97.85352,-48.92915 l 19.5707,-5.96887 37.7435,-0.0922 c 36.54892,-0.0893 38.21277,0.027 52.57026,3.67665 8.1547,2.07289 23.88116,7.32005 34.94768,11.66034 39.16691,15.3613 60.50478,29.54254 84.97515,56.47485 7.00131,7.70571 12.72965,14.54807 12.72965,15.20523 0,1.4129 -13.5476,9.18013 -96.80509,55.50118 l -62.55636,34.80379 v 14.43771 14.43772 l 3.14529,-1.65093 c 7.12971,-3.74231 104.73918,-57.40413 134.79488,-74.10488 17.81899,-9.9013 32.75912,-18.00236 33.2003,-18.00236 0.44118,0 0.80215,8.70456 0.80215,19.34346 v 19.34347 l -85.96064,47.40661 -85.96066,47.40662 -0.0106,37.35076 -0.0107,37.35077 -12.23169,10.49446 c -6.72743,5.77194 -12.86075,10.48485 -13.6296,10.4731 -0.76885,-0.0117 -6.90216,-4.52797 -13.62959,-10.03609 z"
       id="path2"
       transform="scale(0.26458333)" /><path
       style="fill:#ffffff;stroke-width:1.39791"
       d="m 312.65116,682.20252 c -12.22724,-18.97834 -20.39478,-40.01192 -26.11949,-67.26461 -1.67947,-7.99516 -3.91776,-15.91075 -4.97397,-17.59018 -1.76768,-2.8107 -47.65155,-44.19058 -76.44235,-68.93871 l -12.19693,-10.48431 -0.004,-37.34898 c -0.003,-35.26513 0.13534,-37.29299 2.48656,-36.34559 5.64458,2.27444 29.29799,15.65954 30.66059,17.35036 0.80927,1.0042 3.17638,7.48735 5.26025,14.40699 5.52169,18.33514 7.98047,21.89413 23.16933,33.53667 l 13.44272,10.30409 32.31665,0.44614 c 24.14191,0.33328 32.77568,0.90527 34.13124,2.26121 1.35428,1.35465 1.99188,10.91424 2.51354,37.68572 l 0.69895,35.87066 26.32984,21.47009 26.32984,21.4701 5.92223,-4.63743 c 3.25724,-2.55059 15.43923,-12.18613 27.07111,-21.41232 l 21.14887,-16.77489 0.069,-12.23169 c 0.0393,-6.96147 0.65594,-12.23169 1.4312,-12.23169 1.33654,0 45.18456,25.51283 48.613,28.28533 2.69226,2.17715 2.09616,8.70714 -2.40619,26.35872 -7.05071,27.64248 -15.49073,47.21864 -26.39174,61.21411 l -2.59107,3.3266 -11.06244,-4.26612 c -19.34348,-7.45964 -31.74183,-9.37663 -60.64423,-9.37663 -28.15821,0 -37.50986,1.4509 -59.64866,9.25447 -6.28147,2.2141 -11.94299,4.02014 -12.58117,4.01342 -0.63817,-0.007 -3.57807,-3.76491 -6.5331,-8.35153 z"
       id="path3"
       transform="scale(0.26458333)" /><path
       style="fill:#ffffff;stroke-width:1.39791"
       d="M 314.52918,815.4073 C 228.20864,743.42798 207.81987,724.21011 199.13728,706.64222 l -5.5271,-11.18326 -0.44132,-70.94381 c -0.25245,-40.58246 0.0884,-70.9438 0.79657,-70.9438 1.36616,0 26.8252,22.43232 32.71144,28.8225 l 3.71063,4.02833 0.67132,56.61525 c 0.4331,36.52568 1.23608,58.43261 2.26289,61.73685 1.01304,3.25988 4.63451,7.93881 9.96273,12.87179 10.81756,10.01517 17.9903,15.45736 19.01803,14.42963 0.44972,-0.44973 0.0958,-4.96321 -0.78657,-10.02998 -0.88234,-5.06677 -1.60021,-17.99276 -1.59526,-28.72443 0.009,-20.14844 1.42821,-28.88223 7.3331,-45.13705 l 2.95459,-8.13331 3.14167,12.32704 c 1.72792,6.77986 4.8,16.69996 6.82685,22.04466 4.27481,11.27245 18.99854,33.96324 27.16338,41.86157 l 5.6321,5.44825 13.97025,-5.7978 c 20.09089,-8.33791 33.89575,-11.33332 56.84675,-12.33468 29.07678,-1.26865 50.97845,2.85045 75.70668,14.23834 l 10.06878,4.63689 5.34965,-5.81963 c 16.98365,-18.47567 29.32739,-42.55049 33.96921,-66.25247 0.9382,-4.79064 2.23596,-8.38261 2.88392,-7.98215 0.64795,0.40045 2.86756,5.89271 4.93245,12.20502 3.42524,10.47076 3.76603,13.49905 3.88744,34.5424 0.0732,12.68601 -0.39239,27.94068 -1.03463,33.89926 -0.76838,7.12883 -0.68517,10.83378 0.24329,10.83378 0.77605,0 7.37998,-5.81879 14.6754,-12.93064 10.74903,-10.47856 13.57379,-14.09801 14.89592,-19.08653 1.12784,-4.25544 1.45975,-18.28114 1.07512,-45.43199 -0.48084,-33.9406 -0.90929,-40.224 -3.15398,-46.25378 -4.96788,-13.34494 -10.95687,-17.81357 -83.5216,-62.31904 l -19.21004,-11.78192 -0.0112,-5.72445 c -0.0199,-10.18357 0.58304,-10.35149 37.16768,-10.35149 h 32.06605 l 14.11178,-11.11318 c 15.5779,-12.26779 16.49125,-13.65136 22.20784,-33.6412 l 3.80388,-13.30147 17.30803,-10.04081 17.30803,-10.04081 -0.11244,38.0203 -0.11243,38.02031 -19.53973,17.27376 c -18.92039,16.72623 -19.46256,17.35904 -17.10465,19.96449 2.8428,3.14126 16.15735,10.98956 18.64365,10.98956 0.93706,0 5.01719,-2.83076 9.06696,-6.29058 4.04976,-3.45983 7.7994,-6.29059 8.3325,-6.29059 0.53312,0 0.77984,31.61018 0.54825,70.24485 l -0.42107,70.24485 -3.87344,9.13749 c -9.64485,22.75227 -19.39906,32.01031 -128.22881,121.70614 -58.72137,48.39727 -64.39683,52.98682 -65.44511,52.92331 -0.52553,-0.0318 -34.61012,-28.12114 -75.74354,-62.42069 z"
       id="path4"
       transform="scale(0.26458333)" /></g></svg>
